<svg version="1" xmlns="http://www.w3.org/2000/svg" width="1152" height="1152" viewBox="0 0 864.000000 864.000000"><path d="M428 3.3c0 4.5-1.5 5.7-7.1 5.7-3.6 0-5 .5-6.1 2.1-1 1.6-2.7 2.3-6.8 2.7-3.7.3-6.1 1.1-7.4 2.4-1.4 1.5-2.6 1.8-5 1.4-2.5-.5-4 0-6.6 1.9-1.9 1.4-4.4 2.5-5.7 2.5-1.2 0-2.7.9-3.3 2-.8 1.5-2.1 2-5.5 2-3.2 0-5.1.7-7.3 2.5-2.1 1.7-4.2 2.5-7 2.5-2.4 0-4.9.8-6.5 2-1.5 1.2-4 2-6.2 2s-4.7.8-6.2 2c-1.7 1.3-4.1 2-6.8 2-2.9 0-4.7.6-6 2-1 1.1-2.6 2-3.6 2s-3.1 1.1-4.7 2.5c-2.2 1.8-4.2 2.5-7.4 2.5-3.1 0-4.8.6-6.1 2-1.3 1.5-2.9 2-6.7 2-3.9 0-5.1.4-6 2-.8 1.6-2.1 2-5.9 2-3.8 0-5.4.5-7.6 2.6-2.1 1.9-3.4 2.4-5.6 1.9-2.1-.5-3.7 0-6.2 1.9-1.9 1.4-4.3 2.6-5.4 2.6-1.1 0-2.8.9-3.8 2-1.3 1.4-3.1 2-6 2-2.7 0-5.1.7-6.8 2-1.5 1.2-4 2-6.2 2-2.5 0-4.7.8-6.7 2.5-2.3 2-4 2.5-7.1 2.3-3.2-.2-4.3.2-5.5 2-1.2 1.8-2.4 2.2-6.3 2.2-3.7 0-5.4.5-6.6 2-1 1.1-2.7 2-3.9 2-1.2 0-3.4 1-4.9 2.2-1.8 1.4-4 2.1-6.5 2-2.7-.1-4.5.5-6.4 2.3-2 1.9-3.8 2.5-7 2.5-3.3 0-4.8.6-6.7 2.6-1.9 2-3.1 2.5-5.6 2.1-2.4-.4-4.2.1-6.8 1.9-2.1 1.4-5 2.4-7.1 2.4-2.1 0-4.7.9-6.1 2-1.7 1.3-4.1 2-6.8 2-2.9 0-4.7.6-6 2-1 1.1-2.8 2-4 2-1.2 0-3.2 1.1-4.5 2.5-1.7 1.8-3.4 2.5-6.3 2.5-2.4 0-4.9.8-6.4 2-1.8 1.4-4.1 2-7.4 2-3.8 0-5.1.4-5.9 2-.9 1.6-2.1 2-6.5 2s-5.6.4-6.5 2c-.8 1.5-2.1 2-5.5 2-3.2 0-5.1.7-7.3 2.5-1.7 1.4-3.9 2.5-5.1 2.5-1.1 0-2.6.9-3.3 2-1 1.5-2.4 2-5.9 2-3.1 0-5.5.7-7.2 2-1.5 1.2-4 2-6.2 2s-4.7.8-6.2 2c-1.4 1.1-3.6 2-4.9 2-4.6 0-5.2 6.4-.9 10 1.5 1.2 1.6 3.4 1.4 18.2-.3 16.1-.2 16.8 1.9 19.1 2.1 2.2 2.2 3.2 2.2 19.1 0 16.5.1 16.9 2.5 19.8 2.4 2.9 2.5 3.4 2.5 17.5 0 13 .2 14.7 2 17 1.8 2.3 2 4.1 2 19.7 0 15.9.1 17.3 2 18.9 1.9 1.6 2 2.9 2 18.9 0 16.3.1 17.3 2.2 19.5 2 2.2 2.1 3.1 1.9 18.2-.2 16.1.3 19.5 3.5 21.4 1.1.6 1.4 4.3 1.4 16.1 0 13.9.2 15.5 2 17.6 1.8 2.1 2 3.7 2 19.5 0 15.9.1 17.3 2 19 1.9 1.7 2 3.1 2 19.3 0 17.4 0 17.5 2.5 19.8 2.5 2.3 2.5 2.6 2.5 17.6 0 14.2.1 15.4 2 16.6 1.9 1.1 2 2.3 2 19.2s.1 18 2 19 2 2.1 2 18.9c0 16.5.1 17.9 2 19.6 1.8 1.7 2 3.1 2 16.8 0 14.3.1 15.2 2.3 17.5 2 2.2 2.2 3.5 2.7 18l.5 15.6 3.1.7c1.9.3 4.6 2.3 6.8 4.7 2.2 2.4 5 4.4 6.9 4.8 1.7.3 3.7 1.3 4.3 2.1.6.9 2.3 1.7 3.9 1.9 1.6.1 3.4 1 4.1 1.8.6.9 2 1.6 3.1 1.6 1 0 3.4 1.1 5.3 2.5s4 2.5 4.8 2.5c.8 0 3.7 2 6.3 4.5 2.8 2.7 5.8 4.5 7.1 4.5 1.3 0 3.1.9 4.1 2 .9 1.1 2.6 2 3.8 2 1.1 0 3.2.9 4.6 2 1.4 1.1 3.4 2 4.4 2 1.1 0 2.9 1.1 4.1 2.5 1.2 1.4 3 2.5 4.1 2.5 1 0 3 .9 4.4 2 1.4 1.1 3.5 2 4.7 2 1.2 0 3.9 1.8 6.1 4 2.2 2.3 4.9 4 6.1 4 1.2 0 3.2 1.1 4.5 2.5 1.3 1.3 3.5 2.5 4.9 2.5 1.4 0 3.1.9 3.8 2 .7 1.1 2.3 2 3.6 2 1.3 0 3.5.9 4.9 2 1.4 1.1 3.3 2 4.3 2 .9 0 3.9 2 6.5 4.5s5.7 4.5 6.9 4.5c1.1 0 2.8.9 3.7 2 1 1.1 2.7 2 3.9 2 1.1 0 3.1.9 4.3 1.9 1.2 1 3.7 2.2 5.5 2.5 1.9.4 3.7 1.3 4 2.1.3.8 1.5 1.5 2.7 1.5 1.3 0 4.5 2.1 7.5 5 3.5 3.4 6.1 5 7.9 5 1.4 0 2.8.6 3.1 1.4.3.8 1.9 1.6 3.5 2 1.7.3 4.2 1.5 5.6 2.6 1.4 1.1 3.6 2 4.9 2 1.3 0 2.8.8 3.3 1.9.6 1 2.4 2.1 4 2.4 1.6.3 4.9 2.4 7.3 4.6 2.3 2.3 5.1 4.1 6.1 4.1 1.1 0 3 .9 4.4 2 1.4 1.1 3.4 2 4.4 2 1 0 3 1.1 4.5 2.5s3.3 2.4 4 2.1c.6-.2 2.2.6 3.5 2 1.3 1.3 3.4 2.4 4.9 2.4 1.7 0 3.9 1.3 6.5 4 2.1 2.2 4.7 4 5.8 4 1 0 3.3 1.1 5.1 2.5 1.8 1.4 4.2 2.5 5.4 2.5 1.2 0 2.6.9 3.2 2 .6 1.1 2.1 2 3.4 2 1.3 0 3.5.9 4.9 2 1.4 1.1 3.4 2 4.6 2 1.1 0 3.7 1.8 5.7 4 2.3 2.4 5.2 4.4 7.5 5 2.1.6 4.2 1.8 4.7 2.6s2.1 1.7 3.7 1.8c1.5.2 3.2 1 3.6 1.9.5.8 2.7 1.8 5 2.2 2.2.4 4.3 1.3 4.6 2.1.3.8 1.5 1.4 2.7 1.4 1.4 0 4.3 2 7.3 5 3.6 3.5 5.9 5 7.8 5 1.8 0 2.8.6 3.2 2 .7 2.8 6.8 2.8 8.3 0 .7-1.2 2.1-2 3.7-2 1.9 0 3.9-1.3 6.7-4.4 2.4-2.5 5.4-4.6 7.3-5 1.7-.4 3.7-1.4 4.4-2.2.6-.8 2.2-1.4 3.5-1.4 1.3 0 3.2-.9 4.1-2 1-1.1 2.7-2 3.9-2 1.3 0 3.6-1.1 5.2-2.5 1.7-1.4 3.9-2.5 5.1-2.5 1.1 0 2.5-.9 3.1-2 .6-1 2.5-2.2 4.3-2.5 1.8-.4 5.2-2.4 7.5-4.6 2.5-2.2 5.3-3.9 6.6-3.9 1.3 0 2.6-.7 2.9-1.4.3-.8 2.3-2 4.5-2.5 2.1-.6 4.7-2 5.7-3.1s2.8-2 3.9-2c1.2 0 2.9-.9 3.9-2 1-1.2 2.9-2 4.6-2 2.2 0 3.8-1 6.4-4 1.9-2.2 4.2-4 5.2-4s3.3-1.1 5.1-2.5c1.8-1.4 4.1-2.5 5.2-2.5 1 0 2.7-.9 3.7-2s2.7-2 3.7-2c1.1 0 3.1-.9 4.5-2s3.6-2 4.8-2c1.3 0 3.8-1.8 6.3-4.5 2.2-2.5 4.9-4.5 6-4.5 1.1 0 3.1-.9 4.5-2s3.4-2 4.5-2c1 0 2.7-.9 3.7-2s2.8-2 4.1-2c1.2 0 3.6-1.1 5.2-2.5 1.7-1.4 3.8-2.5 4.7-2.5 1 0 4-2 6.6-4.5 3-2.8 5.7-4.5 7.3-4.5 1.3 0 2.6-.7 3-1.5.3-.8 1.6-1.5 2.9-1.5 1.3 0 3.5-.9 4.8-2.1 1.3-1.1 3.6-2.3 5.1-2.6 1.5-.3 3.5-1.4 4.4-2.4.9-1.1 2.5-1.9 3.5-1.9s4.1-2 6.9-4.5c2.8-2.5 6.1-4.5 7.3-4.5 1.2 0 3-.9 4-2 .9-1.1 2.7-2 4-2 1.3 0 3.4-1.1 4.7-2.5 1.3-1.4 3.3-2.5 4.5-2.5 1.2 0 3-.9 4-2s2.8-2 4.1-2c1.3 0 4-1.7 6.4-4 2.3-2.2 5.2-4 6.4-4 1.2 0 2.9-.9 3.9-2 .9-1.1 3-2.3 4.7-2.6 1.6-.4 3.7-1.5 4.6-2.5.9-1.1 2.7-1.9 3.9-1.9 1.2 0 3-.9 4-2s3-2 4.5-2c1.9 0 3.9-1.3 6.9-4.5 2.3-2.5 5-4.5 6-4.5.9 0 3.2-1.1 5-2.4 1.8-1.4 3.8-2.3 4.5-2 .7.3 2.1-.4 3.1-1.6 1-1.1 2.8-2 4-2 1.2 0 3.4-.9 4.8-2s3.2-2 4.1-2c2.9 0 8.6-6 8.6-9 0-1.9.8-3.3 2.5-4.4 2.5-1.6 2.5-1.7 2.5-17.6 0-14.9.1-16 2-17s2-2.1 2-18.5c0-16.5.1-17.6 2.1-19.6s2.1-3 2-19.2c-.2-16.3-.1-17.1 2-19.3 2.1-2.3 2.2-3.1 2-16.9-.2-14.3-.2-14.6 2.3-17.6 2.6-3 2.6-3.3 2.6-19.6 0-16.2.1-16.7 2.5-19.9 2.4-3.2 2.5-3.7 2.5-20.2 0-15.6.2-17 2-18.7 1.8-1.7 2-3.1 2-16.7 0-13.5.2-15.2 2-17.5 1.8-2.3 2-4.1 2-19.8 0-15.9.1-17.3 2-19 1.9-1.7 2-3.1 2-19.1V337l2.5-1.6c2.5-1.6 2.5-1.7 2.5-17.4 0-14.4.2-15.8 2-17.5 1.9-1.7 2-3.1 2-19.4 0-16.5.1-17.7 2-18.9 1.9-1.1 2-2.3 2-19.2 0-14.7.3-18.2 1.4-18.6 2.5-1 2.9-3.5 2.7-17.9-.2-13.8-.2-14.1 2.3-16.8 2.6-2.8 2.6-2.9 2.6-20.1 0-16.2.1-17.4 2-19.1 1.4-1.3 2-2.9 1.8-4.9-.3-3-.5-3.1-6.1-3.6-4.1-.4-6.1-1-6.8-2.3-.7-1.2-2.3-1.7-5.8-1.7s-5.3-.5-6.6-2c-1.3-1.4-3.1-2-6-2-3.1 0-4.7-.6-6.5-2.5-1.3-1.4-3.4-2.5-4.7-2.5-1.3 0-3.2-.9-4.3-2-1.4-1.4-3.3-2-6.3-2-3.1 0-4.9-.6-6.2-2-1.3-1.4-3.1-2-6.3-2-3.3 0-5.2-.6-6.8-2.1-1.6-1.5-3.7-2.2-7-2.3-3.6-.1-5-.6-6.2-2.4-1.1-1.7-2.4-2.2-5.6-2.2-2.9 0-5.3-.8-7.5-2.4-1.8-1.4-3.9-2.2-4.6-2-.7.3-2.1-.3-3.1-1.4-1.3-1.3-3.7-2.1-7.2-2.4-3.9-.4-5.7-1.1-6.8-2.7-1.2-1.7-2.4-2.1-6-1.9-3.6.1-5-.4-7.2-2.5s-3.5-2.6-5.8-2.2c-2.2.5-3.8 0-6.3-1.9-2.4-1.8-4.8-2.6-7.6-2.6s-4.6-.6-5.8-2c-.9-1.1-2.7-2-4.1-2-1.3 0-3.5-.9-4.9-2-1.5-1.2-4-2-6.2-2-2.5 0-4.7-.8-6.7-2.5-2.2-1.8-4-2.4-6.9-2.3-3.1.1-4.3-.4-5.5-2-1.2-1.7-2.5-2.2-6.3-2.2-3.5 0-5.3-.5-6.6-2-1.3-1.5-3.1-2-6.5-2s-5.2-.5-6.5-2c-1-1.1-2.8-2-4-2-1.2 0-3.2-1.1-4.5-2.5-1.9-2-3.3-2.5-7.2-2.5-3.7 0-5.1-.4-6-2-1-1.5-2.4-2-5.9-2-3.3 0-5.1-.6-6.4-2-1.3-1.5-3.1-2-6.5-2s-5.2-.5-6.5-2c-1.3-1.5-3.1-2-6.6-2-4.1 0-5.1-.4-6.5-2.5C555 43.4 554 43 550 43c-3.4 0-5.2-.5-6.5-2-1-1.1-2.8-2-4-2-1.2 0-3-.9-4-2-1.3-1.5-3.1-2-6.7-2s-5.3-.5-6.5-2c-1.2-1.4-3-2-5.9-2-3.1 0-5.1-.7-7.2-2.5-2-1.7-4.2-2.5-6.7-2.5s-4.7-.8-6.8-2.6c-2.4-2.1-3.8-2.5-6.4-2.1-2.6.5-3.9.1-5.4-1.4-1.1-1.1-3.4-2.2-5.2-2.6-1.8-.3-4.1-1.5-5.1-2.6-1.4-1.4-2.7-1.8-5.2-1.4-2.6.5-4 0-6.3-1.9-1.9-1.6-4.1-2.4-6.6-2.4s-4.7-.8-6.7-2.5C446.5 4.6 444.7 4 441 4c-4 0-5-.4-5.5-2-.5-1.5-1.5-2-4.1-2-3.2 0-3.4.2-3.4 3.3zm239.2 143.5c1 1 1.2 95.7.3 97.2-.4.7-30 1-85 1-50.7 0-84.6.4-85 .9-.3.5-.5 95.7-.5 211.4 0 190.5-.1 210.7-1.6 212.1-1.4 1.4-8.7 1.6-66.4 1.6-63.2 0-65-.1-66-1.9-.7-1.4-1-69.3-1-212.5 0-115.8-.1-210.7-.2-210.8-.2-.2-38.8-.5-85.8-.8l-85.5-.5v-97.9l2.3-.6c3.8-.8 473.5-.1 474.4.8z"/></svg>